# xmcd
#
# Track frame offsets:
#	150
#	17051
#	31923
#	51142
#	71579
#	90936
#	107125
#	121897
#	144331
#	164532
#	188158
#	207674
#	229513
#	241609
#
# Disc length: 3455 seconds
#
# Revision: 1
# Processed by: cddbd v1.5.2PL0 Copyright (c) Steve Scherf et al.
# Submitted via: EZCDAudioConverter 3.1.0.1
#
DISCID=b20d7d0e
DTITLE=Elimar Amor e Dor - Acústico
DYEAR=2002
DGENRE=blues
TTITLE0=Lembranças
TTITLE1=Lama
TTITLE2=Folhas Mortas
TTITLE3=Ouça-Meu Mundo Caiu-Castigo
TTITLE4=Sabra Dios
TTITLE5=Brigas
TTITLE6=Segredo
TTITLE7=Me Deixas Louco
TTITLE8=Amor Proibido
TTITLE9=Me Deixa em Paz-Obsessão
TTITLE10=Até Quem Sabe
TTITLE11=Cadeira Vazia-Atiraste Uma Pedra
TTITLE12=Preconceito
TTITLE13=Deus Me Livre
EXTD=
EXTT0=
EXTT1=
EXTT2=
EXTT3=
EXTT4=
EXTT5=
EXTT6=
EXTT7=
EXTT8=
EXTT9=
EXTT10=
EXTT11=
EXTT12=
EXTT13=
PLAYORDER=
